<?xml version="1.0" encoding="UTF-8"?>
<svg version="1.1" viewBox="0 0 896 900" width="224" height="225" xmlns="http://www.w3.org/2000/svg">
<path transform="translate(0)" d="m0 0h896v900h-896z" fill="#FDED08"/>
<path transform="translate(431,93)" d="m0 0 36 12 52 18 40 14 47 17 9 3 1 1v51l-2 43-3 40 10-1 31-1 27-2-2 6-8 17-13 32-3 7v3l29 11 1 1v157l-9-3-29-12 3 11 6 18 2 5v3l-18 11-17 12-13 10-14 11-14 12-12 11-27 27-7 8-9 11-11 14-14 20-10 16-9 16-10 18-10 19-8 18-13 30-5 15-3-1-15-36-11-24-8-16-10-19-6-11-13-21-8-12-10-13-7-9-13-16-7-7-7-8-25-25-8-7-10-9-10-8-17-13-29-20-8-5 1-4 12-32-24 9-12 5-4-1v-146l1-10 12-5 16-6h2l-6-16-14-34-6-12v-3l26 2 41 1-1-20-3-42-1-42v-29l5-3 16-5 60-21 33-12 29-10 34-12z" fill="#0A1E32"/>
<path transform="translate(396,328)" d="m0 0h73l31 2 35 5 31 6 36 9 36 12 28 10 4 2 1 127-10-3-27-10-27-9-37-10-36-7-27-4-40-3h-65l-30 2-35 5-33 6-34 9-27 8-32 12-7 3-5-1v-123l1-2 37-14 34-11 41-10 43-7 26-3z" fill="#FEFCF7"/>
<path transform="translate(431,115)" d="m0 0 11 3 29 10 36 13 26 9 40 14 22 8 1 1v48l-2 33-4 45-4 31-1 1-8-1 3-33v-5h-2l-5 5-3 6h-3l1-6 3-6h-2l-1 4-2 5 1 4h5v-2l6 1v14l-2 5-8-1-3 1-7-12-4-2-1 3v12l1 2-5 1v-2l-4-1 2-1v-3l-11-3-20-9-6-2-8-1-5 5-3 4-2 3v-2l-4 2-25-1h-71l-22 1-15 2-5 5h-4l-1 3-4 1-1-1-7 2-6 1-4-1-2 1h-6v-2h-3l-1 3-17 2-4 2-1 2-8 1-1-3h2l-2-6-5-44-2-22-4-77v-11l5-3 147-52z" fill="#031E55"/>
<path transform="translate(569,479)" d="m0 0 17 3 16 6 25 11 5 18 3 12v8l-5 5-10 7-14 10-12 10-10 8-5 5h-2l-2 4-10 8-13 12-10 10-5 4-9 11-9 10-11 13-11 15-7 9-11 17-6 9-11 19-12 22-11 24-4 12h-3l-8-19-8-17-10-18-11-20-16-26-9-12-8-11-13-16-15-16-7-7-7-8-15-15-8-7-17-16-20-15-21-14-8-6v-7l9-30 4-5h2l1-3 9-2h7l22-6 3-1h9l2 2 3 10 9 20 14 30 3 10 5 9 16 26 6 10 6 8 4 6 8 7 9 8 4 6 7 7 8 7 11 8 6 9 9 6h9l6-1v-2h2v2l6-2 4-10 5-5 7-6 7-8 8-8 3-4h2l2-4 5-5 3-4h2l2-4 6-7 4-8 6-7 10-16 7-14 7-12 7-15 5-14 8-21 3-4 3-12z" fill="#031E56"/>
<path transform="translate(431,115)" d="m0 0 11 3 29 10 36 13 26 9 40 14 22 8 1 1v48l-2 33-4 45-4 31-1 1-8-1 3-33v-5h-2l-5 5-3 6h-3l1-6 11-22 3-16 1-7 1-19-2-2-14 7-10 8-13 12-6 7h-2v2h-2l1-5 6-10 6-17 6-27 4-17 4-12v-2l-9-1-6 7-11 18-8 12-8 10-11 12-7 6-4 4-3-1-1-10v-12l4-17 9-22 3-13v-13l-4-1-3 1-7 16-8 10-12 14-9 13-7 15-6 13-2-4-4-24-6-15-10-22-2-5v-34l-5 7-6 16-1 5v17l4 29v16l-3 13h-4l-4-12-9-19-8-10-11-13-8-10-6-13-1-5-5 1-2 2v16l6 17 6 15 3 13v26l-4-4-9-12-9-10-14-11-18-14-14-14-2-3-4-1-4 1 1 9 6 15 8 12 13 14 8 13 6 17 1 5v7l-5-1-17-17-16-12-17-11-3-1 1 5 2 32 8 16 7 12 1 5-4-2-10-8-1 2 1 13 2 3 1 9v15l6-1 4-1 1-5 8-12 5-6h3l3 6 2-5-2-5 1-7 8-10 10-9 12-9 17-10 12-6 4-1h11l3 4-1 9-13 16-8 10-7 8-10 5-26 7-5 4-1 2 13-5 19-5h10l9 9v3l-24 3-5 5h-4l-1 3-4 1-1-1-7 2-6 1-4-1-2 1h-6v-2h-3l-1 3-17 2-4 2-1 2-8 1-1-3h2l-2-6-5-44-2-22-4-77v-11l5-3 147-52z" fill="#F5B517"/>
<path transform="translate(413,466)" d="m0 0h21l1 7 2-7 35 1 31 3 23 3 7 3 3 1h12l3 1-1 5-12 30-12 26-13 25-15 23-10 14-11 13-8 10-22 22-13 10-5-2-13-12-8-7-7-7-7-8-11-13-10-13-10-15-11-18-14-27-7-16-6-13-9-24 1-3 14-4 4-2h11l31-4z" fill="#041E54"/>
<path transform="translate(184,415)" d="m0 0h1l1 55 3 7-1 35h5v-2l4-2h2l1-2h2v-4-2l25-10 20-7 26-8 36-9 41-7 22-3 30-2h65l40 3 39 6 36 8 31 9 18 6 3 3-4 2-9-3-4-3h-3l2 5-2 2-11-3-20-7-14-2-3 5-2 9-4 7-7 18-5 14-8 17-11 19-4 8-11 17-5 6-4 8-7 8h-2l-2 4-10 10-9 10-6 7h-2l-2 4-6 5-3 4h-2l-2 7-5 5h-3v-2h-2v2l-9 2h-6l-10-7-5-7v-2l-4-2-13-10v-2l-4-2-8-8-4-6-10-9-5-4-9-13-5-8-7-11-9-15-8-14-4-13-11-24-7-15-5-11-2-6h-9l-9 3-8 2-9 2-12 1-3 1-6 7-8 26-1 4v7l10 7 17 11 2 6 4 2 7 5 2 2 2 1v2l4 1 2 7v2l8 5 1 5 7-1 5 10 5 4 12 6 5 8v4l6 2 2 7-4-1 1 8-4-1-11-12-23-23-8-7-10-9-10-8-17-13-29-20-8-5 1-4 12-32-24 9-12 5-4-1zm229 51-36 2-31 4h-12l-5 3-12 3-1 3 10 27 7 15 14 29 9 16 13 20 11 15 11 13 7 8 11 12 14 13 9 7 5-2 14-12 21-21 20-25 12-18 11-18 15-29 11-25 10-25v-3l-3-1h-13l-5-3-19-3-26-3-37-2h-11l-2 7-1-7z" fill="#0A1E31"/>
<path transform="translate(303,148)" d="m0 0h3v2l-7 3-4 1-1 2-10 4-12 6v2h-2v2h7l-3 2-4 2 1 33 4 68 5 46 1 10 2 1-1 2h-2l1 2h8l2-4 3-1 17-2 1-2h3v2l7-1 3-1 5 1 4-2 7-1h4l1-2 5-2 4-4 15-2 22-1h71l25 1 2-2h3l7-9 3-1 10 2 21 9 13 5 2 7h2l1-2v-1-12l2-3 4 1 8 12 5-1 4 1 2-4 1-14-6-1v2l-5 1-2-2v-5h2l1-4 1-3h2l-4 12 3-1 3-6 7-6 1 7-3 32-1 2 8 1 3 2v2h-6l-5-2-16-2-4-2v-2h-8v9h-9l-32-5-19-2-20-1h-73l-34 3-45 7-38 9-24 7-29 10-23 9h-3v125l4 4-2 1v2h-2l-1 3-6 1v2h-5l-1-11 1-24-3-7-1-16h-1v-80l1-10 12-5 16-6h2l-6-16-14-34-6-12v-3l26 2 41 1-1-20-2-26v-10l1-6h1v7l3-1 1-2v-24l-1-6v-7l-1-8v-14l2-10-1-1-1-2 6-2 10-1 15-6 7-3h8z" fill="#0A2033"/>
<path transform="translate(329,475)" d="m0 0 4 1 7 8 2 1v2l4 2 7 6 10 7 14 8 3 4 2 5v4l-7-1-16-7-11-7-9-7h-3l7 11 9 17 6 16 5 11v2l5-4 7-8 10-10h2l1 5-2 21-4 12-1 6 4 6 6-1 7-8 8-11 8-16 3-8 2 2 3 17 10 24 3 8 1 5v21l3-1 5-15 1-4v-10l-3-30v-8l2-8 4 1 4 12 7 13 7 8v2l3 1 7 8h3l4-8-1-6-4-12-1-6v-18l5 5 5 8 8 6 4-1 6-7 3-5v-6l-4-9-1-8 4-1 6 5 2 3 4-1 8-17 3-9-9 6-10 7-23 11-6 1-1-7 5-6 16-9 11-7 10-8 14-11 2-1h9l3 1-1 5-12 30-12 26-13 25-15 23-10 14-11 13-8 10-22 22-13 10-5-2-13-12-8-7-7-7-7-8-11-13-10-13-10-15-11-18-14-27-7-16-6-13-9-24 1-3z" fill="#FCD11B"/>
<path transform="translate(670,375)" d="m0 0h1l1 31v99l-2 5-9-3-2 5-10-3-4-2 3 11 6 18 2 5v3l-18 11-17 12-13 10-14 11-14 12-12 11-27 27-7 8-9 11-11 14-14 20-10 16-9 16-10 18-10 19-8 18-13 30-5 15-3-1-15-36-11-24-8-16-10-19-6-11-13-21-8-12-10-13-7-9-13-16-3-4 1-1v-7l4 1-2-7-7-2-1-5-3-5v-2l-3 1-4-4-6-3-5-4-4-9h-7l-1-5-4-2-5-3-1-2h2l-2-4v-3l-4-1-2-2-7-6-6-4-4-5 4 1 16 12 10 9 12 11 15 14 13 13 7 8 10 10 7 8 9 11 10 13 9 13 14 22 9 16 14 26 8 16 8 18 2 3 5-14 7-15 8-16 12-22 9-15 9-13 7-11 9-11 8-11 13-15 8-9 9-11 12-11 10-10 11-9 5-4 5-5 11-10 26-20 11-7 5-5v-8l-5-18-2-12-9-3-14-6-1-2 11 3v-3l-1-4 5 1 12 6 1-2h2l1-2 30 11 7 3-1-11z" fill="#0A1F32"/>
<path transform="translate(402,454)" d="m0 0h65l40 3 39 6 36 8 31 9 18 6 3 3-4 2-9-3-4-3h-3l2 5-2 2-11-3-20-7-14-2-3 5-2 9-4 7-7 18-5 14-8 17-4 5 1-6v-3l-2-5-5 2-3 1-2 5-7 13-1 4-2 5h-2l-2 5-4 6h-2l-2 6-3 3-4 7-1 2h-2v2h-2l-1 3h-2l-2 4h-2v3l-3 3-3 6-7 8-8 7-4 5h-2l-2 4-12 10-8 2 2-4 14-12 20-20 20-25 12-18 11-18 15-29 11-25 11-28h-16l-5-3-19-3-26-3-37-2h-11l-2 7h-1v-8l-57 3-31 4h-12l-5 3-12 3v6l-4-1v-3h-2v-2h-13l-9 1-2 2-6 1-3-2-6 1-10 1v2l-6 3-3 3-4-1h-3l-12 3-6 3-5 1-3-3 1-2 26-9 26-8 36-9 41-7 22-3z" fill="#0A1E31"/>
<path transform="translate(302,175)" d="m0 0 5 2 9 10 8 8 12 9 14 11 11 10 12 16 3 8v3l-21 12-11 8-11 10-5 4-6 9 1 8 1 3-3 6h-1l-2-8-4 2-7 10-5 7-1 4-7 3-4-1v-16l-1-8-1 9h-1l-1-26 2-2 11 9 3 2-6-12-10-18-1-3-2-37 4 1 16 10 13 10 10 9 11 11 4 1-3-15-6-16-8-12-13-14-7-11-6-15-1-9z" fill="#031E54"/>
<path transform="translate(417,256)" d="m0 0h24l16 2 10 4 11 11 10 13 7 9 1 5-8 16-25-1-80-1-3-5-5-8 1-5 9-14 7-8 7-9 7-5z" fill="#F5B517"/>
<path transform="translate(597,176)" d="m0 0 2 2v10l1 5v23l-1 4-1 13v18l-1 12 1 9 1 7-2 1 2 7h-2l1 7-1 5-4 4v4l4 2v11l7 2h2l1-2v20l11 2 12 2 7 2 3-9 7-1 3 1 3-6h2v-6l4-6 4-9v-6l2-6-3-1-1-1h-9l-5-1-6 1h-12l-9 2-8-3-2-1v-2l11-1 31-1 27-2-2 6-8 17-13 32-3 7v3l29 11 1 1v157l-9-3-14-6-2-3 3-3 5 1h2l3-1v-101l-1-31-15-6-43-15-30-8-25-6-12-2 4-1-1-9 3-1 6 1v2l14 2 8 1 3 2 6 1v-2l-11-3 3-1h5l5-41 4-47 1-21 1-7z" fill="#0A1E32"/>
<path transform="translate(243,498)" d="m0 0h4l-1 6-6 23v7l4 4 9 5v2l4 2 10 7 2 1v2l4 2 10 9 10 8 8 7 5 4 5 5 6 4v2l3 1 2 6 4 2 11 11 6 5 7 9 8 10 6 7v2l3 1 10 13 10 14 9 13 7 11 8 14 6 10 4 9 8 16 4 7 2-1 5-11 3-7 8-16 14-25 7-10 10-15 7-8 8-11 10-11 6-9h2l2-4 2-3h2v-2l4-4h2l2-5 7-5 1-2h2v-2l5-4 7-8 10-10 8-7 11-9 10-8 8-6h2v-2l8-6 12-8 7-5-2-13-4-12-1-11 5 1 3 7v4h2l5 18v8l-5 5-10 7-14 10-12 10-10 8-5 5h-2l-2 4-10 8-13 12-10 10-5 4-9 11-9 10-11 13-11 15-7 9-11 17-6 9-11 19-12 22-11 24-4 12h-3l-8-19-8-17-10-18-11-20-16-26-9-12-8-11-13-16-15-16-7-7-7-8-15-15-8-7-17-16-20-15-21-14-8-6v-7l9-30z" fill="#154E80"/>
<path transform="translate(417,542)" d="m0 0 2 2 3 17 10 24 3 8 1 5v21l3-1 5-15 1-4v-10l-3-30v-8l2-8 4 1 4 12 7 13 7 8v2l3 1 7 8h3 3v3h-2l-1 6-6 8-11 13-5 5-11 12-10 7h-8l-5-3-4-4v-2h-2l-5-5-7-5v-2h-2l-4-6v-2l-3-1-5-6v-3h-2v-3h-2l-3-5 1-6-3-3 1-3 2 3 6-1 7-8 8-11 8-16z" fill="#F5B517"/>
<path transform="translate(544,351)" d="m0 0h10l13 4 11 8 7 10 4 10 1 6v21l-4 11-7 6-10 3-13-1-12-4-9-6-8-9-4-10-1-5v-19l2-9 6-9 9-6z" fill="#042156"/>
<path transform="translate(431,93)" d="m0 0 42 14v3l-4-1-9-1-4-1-5-2-2 1v-2l-3 1-4-2-1-2-8-1v2l-7 2h-4v2l-3 2h-4v2h-2l1 3 6-1 3 1 1 2h3l-1 3-19 7-48 17-43 15-36 13h-10v-4l9-5 5-2 5-1 1-2 8-3 5-3h3v-2l-6 2h-6l-9 4-13 5-10 1-6 1 4 2-1 1-2 11v18l1 3v8l1 10v19l-2 3-5-1-1-6-1-42v-29l5-3 16-5 60-21 33-12 29-10 34-12z" fill="#0A1729"/>
<path transform="translate(411,342)" d="m0 0h19l10 2 10 6 6 8 4 11v19l-4 11-6 8-8 5-8 2-35 1-1-14v-23l1-35z" fill="#042157"/>
<path transform="translate(364,154)" d="m0 0 4 1 7 16 8 11 10 11 10 13 10 21 3 12 1 2h-3l-1 2 6-2h14l20 1 17 3 1 1v6l-3 3-2 1-1 3h-2l-3 1-7-2-12-1h-24l-13 5-6 5-10 13-6 8-6 10 1 4 6 11 9 1v1h-13l-3-5-4-5-2-1h-10l-19 5-11 4h-2l3-6 32-9 8-5 6-7 7-9 11-13 3-6v-6l-2-3h-11l-9 3-2-8h1v-25l-5-19-9-22-1-4v-16z" fill="#041F55"/>
<path transform="translate(385,248)" d="m0 0h11l3 4-1 9-13 16-8 10-7 8-10 5-26 7-5 4-1 2 13-5 19-5h10l9 9v3l-24 3-5 5h-4l-1 3-4 1-1-1-7 2-6 1-4-1-2 1h-6v-2h-3l-1 3-17 2-4 2-1 2-8 1-1-3h2l1-3 3-1 2-28 2 3 1 9v15l6-1 4-1 1-5 8-12 5-6h3l3 6 2-5-2-5 1-7 8-10 10-9 12-9 17-10 12-6z" fill="#F5B516"/>
<path transform="translate(184,415)" d="m0 0h1l1 55 3 7-1 35h5v-2l4-2h2l1-2h2v-4-2l17-7 2 1 3 2 6-2 11-4 9-2 1 3 1-3 1 4-6 2-6 7-8 26-1 4v7l10 7 17 11 2 6 4 2 7 5 2 2 2 1v2l4 1 2 7v2l8 5 1 5 7-1 5 10 5 4 12 6 5 8v4l6 2 2 7-4-1 1 8-4-1-11-12-23-23-8-7-10-9-10-8-17-13-29-20-8-5 1-4 12-32-24 9-12 5-4-1z" fill="#0A1F32"/>
<path transform="translate(595,162)" d="m0 0h12l1 5 2 1 1 3v13l-1 10h-2l-2 11 2 8-2 20v26l-2 12 1 3v6l4 3v9l-1 3 1 2v8l-1 3 24-1h19l-1 7-8 21-4 11-3 1-5-2-16-3-7-2-1-8v-10h-2l-1 2v-2h-5l-2-3v-10l-4-1v-6l5-4 1-2-2-1 1-5v-3h2l-3-5v-5l2 1-1-9-1-12 1-6v-19l1-14 1-2v-23l-1-9-1 30h-1v-41-3l-2-6z" fill="#0F2332"/>
<path transform="translate(388,343)" d="m0 0h6v72l-1 1h-13l-8-10-20-30-3-3v47l-14 2v-72l8-2h9l12 19 10 14 4 6 2 1-1-2v-41l1-1z" fill="#042057"/>
<path transform="translate(413,466)" d="m0 0h20v27l-4 3-10 3-25 6-8 2h-8l-10-5-14-10-11-10-9-6 4-3 39-5z" fill="#F5B517"/>
<path transform="translate(405,455)" d="m0 0h42l33 1 5 1-1 2-4 2h3v2l3-1 1 1 20 1v4l-7 1h-15l-37-2h-11l-2 7h-1v-8l-57 3-31 4h-12l-5 3-12 3v6l-4-1v-3h-2v-2h-13l-9 1-2 2-6 1-3-2-6 1-10 1v2l-6 3-3 3-4-1h-3l-12 3-6 3-5 1-3-3 1-2 26-9 26-8 36-9 41-7 22-3z" fill="#07132B"/>
<path transform="translate(437,466)" d="m0 0 35 1 31 3 23 3 5 2-6 8-15 12-16 10-7 3h-10l-20-6-17-6-3-4-1-5v-20z" fill="#F5B517"/>
<path transform="translate(465,343)" d="m0 0 22 1 19 3 9 8 4 8 1 3v9l-3 9-5 5-6 2h-25l-1 25-15-1-1-4v-67z" fill="#042057"/>
<path transform="translate(431,115)" d="m0 0 11 3 29 10 36 13 26 9 40 14 22 8 1 1v48l-2 33-4 45-4 31-1 1-8-1 3-33v-5h-2l-5 5-3 6h-3l1-6 11-22 3-16 1-7 1-19-2-6h1l1-15v-32l-2-4-3-1v-2l-11-3-5 1-1 5-6-2 2-4-5-5-7-4-10-3-9-3-9-2-11-4h-2v-2l-5-1-3-2-6-3-11-4v-2h-8v-2l-9-3-11-3-8-4-5-1h-7v-3h-2z" fill="#FCD01A"/>
<path transform="translate(305,355)" d="m0 0 3 1 13 35 10 27 1 4-10 2h-8l-2-10-5-1-19 4h-3l-3 11-2 5-11 3h-4l3-12 6-20 11-33 3-11 2-2z" fill="#042157"/>
<path transform="translate(258,367)" d="m0 0h4v68l-1 3-13 4-2-1v-29l-9 2-15 5h-2v33l-15 5-1-1v-70l4-3 9-3h3l1 25 10-3 12-4h3v-27z" fill="#05235A"/>
<path transform="translate(431,499)" d="m0 0 11 1 32 10 4 3-1 9-3 5-12 6-4 1-29 1-21-2-13-4-7-4-4-8 2-5 5-3 13-4z" fill="#F5B517"/>
<path transform="translate(287,174)" d="m0 0 8 1 3 2 1 9 6 15 8 12 13 14 8 13 6 17 1 5v7l-5-1-17-17-16-12-17-11-3-1-3-12-2-4-1-16-1-11 4-6 5-3z" fill="#F5B517"/>
<path transform="translate(500,666)" d="m0 0 2 3-1 5-8 15-8 4-1 8-2 2-1 8h-3l-2 7-2 5-6 10-5 8-5 2-2 12-3 4-5 11-3 8-2 4h-2l-1 4h-2l-1 7-3 8-3-1v-2h-2l-5-13-3-5-5-13-8-15-9-19-9-16-5-9-1-4-3-5v-2l-3-1-1-10h-2l-2-5v-3l-2-1v-3h-2l-2-4 1-3h2l9 13 14 22 9 16 14 26 8 16 8 18 2 3 5-14 7-15 8-16 12-22 9-15 9-13 7-11 8-7z" fill="#0F2332"/>
<path transform="translate(480,249)" d="m0 0 10 2 16 8 11 7 14 11 10 9 7 9 1 2v9l-2 6-9-1-15-5-19-8-7-6-9-11-12-15-3-6 2-5z" fill="#F5B517"/>
<path transform="translate(579,290)" d="m0 0 2 2-2 30-2 9 8 1 3 2v2h-6l-5-2-16-2-4-2v-2h-8v9h-9l-32-5-19-2-20-1h-95v-1l-6-1 4-2 9-1h32l10 1 25-1h38l16 1-5-1h-6l-2-4 4-1h10l-10-3 1-5 6-7 3-1 10 2 21 9 13 5 2 7h2l1-2v-1-12l2-3 4 1 8 12 5-1 4 1 2-4 1-14-6-1v2l-5 1-2-2v-5h2l1-4 1-3h2l-4 12 3-1 3-6z" fill="#081731"/>
<path transform="translate(322,154)" d="m0 0 4 1-2 2-1 3-6 3-9 6-4 6-2 1h-6l-1 3v-4l-3 1-5-1-6 3-4 6 1 15 1 12v3l2 1 3 17 2 32 8 16 7 12 1 5-4-2-10-8-1 2v41l-1 1h-5l-2-10-5-46-4-68-1-33 5-3 40-14z" fill="#FBCF1A"/>
<path transform="translate(670,375)" d="m0 0h1l1 31v99l-2 5-9-3-2 5-10-3-4-2-1 4-1-5h-3l-1 6h-1l-3-11h-3l4 6-1 6 3 6v6l4 2 2 5-1 8-4 3-9 1-4 5 2 1-9 6h-2v2l-10 8-3 6h-2v2l-10 5-4 4h-3v3l-10 1 1 3h-3l-1 5-7 6-1 2-3 1-5 6h-2l-1 4-4 7-3 9-5-1-5 4v-2l-2 1-3 8-3 4-4 1-1-4h-2l1-4 18-21 8-7 12-12 11-9 5-4 5-5 11-10 26-20 11-7 5-5v-8l-5-18-2-12-9-3-14-6-1-2 11 3v-3l-1-4 5 1 12 6 1-2h2l1-2 30 11 7 3-1-11z" fill="#0F2332"/>
<path transform="translate(631,500)" d="m0 0 5 1 2 6 3-3 3 2 3 10 9 25v3l-18 11-17 12-13 10-14 11-14 12-12 11-27 27-7 8-9 11-11 14-6 9-4-2 1-9 3-4 4-1 2-4 2-2 3-6 2-3h2v-3h3v-2h2l2-4 4-9 4-1 4-2 3 1 5-12 4-7h2l1-3 4-4h3l2-4 6-5 1-5h2v-2l7-2 3 1v-3l5-3 3-3 6-3h3v-2h2l2-6 9-8h2v-2l10-6v-4l3-3 9-1 4-2v-8l-3-6-2-1-2-9-2-4 1-5z" fill="#0A1F32"/>
<path transform="translate(329,475)" d="m0 0 4 1 7 8 2 1v2l4 2 7 6 10 7 14 8 3 4 2 5v4l-7-1-16-7-11-7-9-7h-3l7 11 9 17 3 12v12h2l5 5v3l-2 8-4-1-12-22-12-25-7-16-9-24 1-3z" fill="#FDE809"/>
<path transform="translate(489,313)" d="m0 0 3 1v2l12 2-1 2h-11l-2 1 2 2h10v2h6v1h-12l-10-1h-38l-31 1-4-1h-32l-11 1 6 1 4 1h16v1l-34 3-14 2-16 1-6-1 1-2 7-2 18-3-5-2-1-2 5-2 4-4 15-2 22-1h71l25 1z" fill="#091E31"/>
<path transform="translate(548,365)" d="m0 0h9l10 5 6 8 2 6v21l-4 7-4 3-3 1h-9l-9-4-7-8-2-6v-20l4-8 5-4z" fill="#FEFDFA"/>
<path transform="translate(595,363)" d="m0 0 14 4 1 58 8 3 23 8 3 2 1 3v9l-9-2-29-9-12-3-1-1v-71z" fill="#042158"/>
<path transform="translate(214,307)" d="m0 0h44l2 7 1 23-1 4-14 4-9 2h-7l-5-10-6-17-5-10z" fill="#031F57"/>
<path transform="translate(610,235)" d="m0 0 3 6v24l-2 27-1 2 11 3 8-2h15l5-1 14 2 2 2-1 13-3 5v3l-4 4-2 8h-2l-2 6-2 1-4-1-4 1 1-6 8-20 1-5-19 1h-24v-11l-1-3 1-2v-9l-4-3v-7l-1-3 2-13v-14l2-7z" fill="#0A1F32"/>
<path transform="translate(632,307)" d="m0 0h19l-1 7-8 21-4 11-3 1-5-2-16-3-7-2-1-8 2-24z" fill="#031E56"/>
<path transform="translate(288,302)" d="m0 0 2 3 1 9v15l6-1 4-1 1-5 8-12 5-6h3l3 6 2-4h2v2h7l-4 5 13-5 19-5h10l9 9v3l-24 3-5 5h-4l-1 3-4 1-1-1-7 2-6 1-4-1-2 1h-6v-2h-3l-1 3-17 2-4 2-1 2-8 1-1-3h2l1-3 3-1z" fill="#071128"/>
<path transform="translate(539,477)" d="m0 0h9l3 1-1 5-12 30-7 16h-2l1-5-10 5 1-6 7-16 2-6-9 6-10 7-23 11-6 1-1-7 5-6 16-9 11-7 10-8 14-11z" fill="#FDE909"/>
<path transform="translate(415,355)" d="m0 0h15l9 3 5 8 1 3v17l-4 10-5 4-9 2h-12l-1-1v-45z" fill="#FEFCFA"/>
<path transform="translate(405,455)" d="m0 0h42l33 1 5 1-1 2-4 2h3v2l3-1 1 1 20 1v4l-7 1h-15l-37-2h-11l-2 7h-1v-8l-43 2h-14l-1-7 2-1v-2l2-1z" fill="#050E25"/>
<path transform="translate(520,639)" d="m0 0 1 2h2l3 3v2h-3l-1 5-3 2-3 7-7 6-3 3-1 9 2 3-11 16-11 18-6 11-12 23-8 16-7 15h-3l-5 4-3 5-4 4-1-3h2v-4l2-1 1-3h2l3-9 4-9 4-8 2-5v-5l9-9 4-7 6-11 1-5 2-3h3v-8l2-2 1-8 6-4h3l2-5 5-10 1-5h-2l-4 3 2-4 8-11 9-11z" fill="#0A2033"/>
<path transform="translate(470,528)" d="m0 0 4 4 1 11 4 19 4 12 1 6-5 9h-3l-7-7-7-8-7-10-6-13-2-7-3-1v-5l2-2h10l2-3 11-4z" fill="#031F55"/>
<path transform="translate(639,359)" d="m0 0 17 4 19 9 3 7 1 109 1 16 3 9v9l-9-3-14-6-2-3 3-3 5 1h2l3-1v-101l-1-31-15-6-17-6-1-3z" fill="#050D24"/>
<path transform="translate(426,537)" d="m0 0h11l3 1 2 8v13h1l3 30v10l-5 16-3 5-3-1v-21l-3-11-10-23-3-13-2-10z" fill="#041F55"/>
<path transform="translate(528,501)" d="m0 0h2l-2 9-8 17-2 2-4-1-4-5-3-2h-3l1 8 4 9v6l-7 10-4 4-5-1-7-6-6-9-2-2-1 14h-1l-3-19 1-3-3-1 1-4h11l17-9 16-8z" fill="#041F54"/>
<path transform="translate(433,466)" d="m0 0h1l1 7h1l1 14 2 7 12 5 26 8h10l14-7 14-10 11-9 4-5 9 1-5 4-14 12-16 11-15 8-6 5-1 7v2l3 1-6 1h-6l4-9v-6l-7-3-28-9-11-1-31 7-12 4-3 4h-2l-1 2-8-8-17-10-7-5v-2l-4-2-4-3v-2l-4-2-7-8 4-3 3 2-2 2 10 8 10 9 17 11 5 2h8l40-10 6-3z" fill="#0B2340"/>
<path transform="translate(377,699)" d="m0 0 4 2 4 6 9 16 10 18 12 24 3 8 10 22 5 6 1-7 3-1 2-4 6-8 5-3-1 7-12 28-3 10-3-1-15-36-11-24-8-16-10-19-6-11-1-6v-2h-2l-4-8z" fill="#0A1A2E"/>
<path transform="translate(646,380)" d="m0 0 9 2 6 2 1 3v26l-1 44-13-5-1-1z" fill="#042259"/>
<path transform="translate(670,375)" d="m0 0h1l1 31v99l-2 5-9-3-2 5-10-3-4-2-1 4-1-5h-3l-1 6h-1l-3-11h-3l4 6-2 2-3-3v-3l-1 1 7 23 1 5 2 3-1 2-5 2v-10l-5-18-2-12-9-3-14-6-1-2 11 3v-3l-1-4 5 1 12 6 1-2h2l1-2 30 11 7 3-1-11z" fill="#0C263D"/>
<path transform="translate(402,454)" d="m0 0h65l40 3 39 6 8 2v2h-6v3h2l4 7v8l-3 9h-1l-1-11 2-5h-16l-5-3-19-3-17-2v-1l12-2 1-3h-20l-7-2-10-1v-1l11-1 3-1-4-1-33-1h-61v-1z" fill="#09172C"/>
<path transform="translate(592,581)" d="m0 0h3l1 5-10 9-11 9-34 34-7 8-9 11-11 14-6 9-4-2 1-9 3-4 4-1 2-4 2-2 3-6 2-3h2v-3h3v-2h2l2-4 4-9 4-1 4-2 3 1 5-12 4-7h2l1-3 4-4h3l2-4 6-5 1-5h2v-2l7-2 4-1 6-1z" fill="#0A192D"/>
<path transform="translate(451,115)" d="m0 0 4 2 12 2h2 7l5 3v3l7 1 12 4 13 7 7 2 9 4 11 5 11 3 6 2 8 2 11 4 4 1 12 5 1 5 5 1-1 4v-2l-11-3-36-13-37-13-48-17-22-8 4-1 1-2z" fill="#0A172A"/>
<path transform="translate(417,424)" d="m0 0 9 1 4 5 2-6h11l-1 4-4-1-5 2v3h2v-2l4 1 1 3h-3l-2 6 6-1 2-1-1 5h-7l-3-2v-7l-2 1-3 5-2 2h-8l-5-1v2h-8l-2-3-1 3-5 1h-7l-2-5-4 5-9 2-2-1v-15l3-3h7l3 3v2l4 1-1-5 2-2 10-1 1 2h2v4h6l2 1 1 3 3 1v-10z" fill="#123558"/>
<path transform="translate(246,502)" d="m0 0 1 4-5 21 1 7 1 3 6 2 13 10 7 5 4 1v2h2v3h2v2l4 1 8 3v5l5 2h2l1 5 16 14 9 7 5 3v2l3 1 2 6 5 4 9 11 1 3 4 2 3 3v2h2l5 6 4 4 7 10 7 9 3 3 5 9 7 9 7 11 6 11 7 12 5 9 7 15 4 8 5-1 5-13 14-25 5-7 1 2-6 10-8 16-5 9-4 10-3 6h-3l-10-19-11-22-12-20-10-15-8-11-12-16-10-11-11-14-9-11-8-7-10-10-2-4-2-1v-2l-5-2-6-5v-2l-4-2-7-7-8-6-15-13-3-2v-2l-5-2-11-8v-2l-6-2-6-4-2-3v-7l6-23z" fill="#05336C"/>
<path transform="translate(549,485)" d="m0 0 2 4-5 18-5 11-13 26-8 14-2 6-3 7h-2l-2 5-4 6h-2l-2 6-3 3-4 7-1 2h-2v2h-2l-1 3h-2l-2 4h-2v3l-3 3-3 6-7 8-8 7-4 5h-2l-2 4-12 10-8 2 2-4 14-12 20-20 20-25 12-18 11-18 15-29 11-25 8-20z" fill="#060E24"/>
<path transform="translate(265,170)" d="m0 0h3l1 2 3 52 3 51 2 19v11l-4-1-2-4v-8l1-5-2-8-2-10-1-12-1-9-3-1v-3l2-1v-3-7-3l-1-10-2-1-1-21 1-3v-5h2l-2-9v-4h2v-6z" fill="#0A172A"/>
<path transform="translate(534,542)" d="m0 0 5 2-1 5-3 10-6 10-4 8-11 17-5 6-4 8-7 8h-2l-2 4-10 10-9 10-2 2h-3v2h-2v2l-7 6-2-1v-2l3-2 2-3 3-1 1-2h2v-2h2v-3l4-3h2l2-5 3-1v-4l3-3 8-13 2-1 1-3 3-3h2v-4h2l1-5h2l1-3 2-2 3-4v-2l2-1 1-3 2-1 1-3 2-2 1-5h2l3-9 4-9z" fill="#0F2332"/>
<path transform="translate(666,365)" d="m0 0 5 1 10 3 2-4v148l-2-2-2-7-1-16-1-109-2-6-12-6z" fill="#0C2846"/>
<path transform="translate(329,482)" d="m0 0 10 3h3v2l4 2 7 6 10 7 14 8 3 4 2 5v4l-7-1-16-7-11-7-9-7-5-1v-2l-2-1-2-7-3-1v-5z" fill="#F5B517"/>
<path transform="translate(419,241)" d="m0 0h14l20 1 17 3 1 1v6l-3 3h-11l-11-2h-24l-14 1-3-2-1-5 4-3z" fill="#F5B517"/>
<path transform="translate(385,536)" d="m0 0h2l1 5-2 21-4 12-1 6-1 2-4-2-4-5-5-5-4-5 1-6-5-2-2-4h-2l-1-11 1-4 8 18v2l5-4 7-8z" fill="#F5B516"/>
<path transform="translate(349,557)" d="m0 0h2l6 11 13 20 11 15 11 13 7 8 11 12 13 12 9 7h3l1 3-2 2h-3v-2h-2l-5-5-5-3-7-1-4-5-6-8v-2l-5-2-9-10-4-6-5-7-5-5-3-5v-3l-4-2-4-6-1-3-5-5-3-5v-2h-2l1-5-5-9z" fill="#0A172A"/>
<path transform="translate(489,313)" d="m0 0 3 1v2l12 2-1 2h-11l-2 1 2 2h10v2h6v1h-12l-10-1-31-1-2-3-5-2-2-2h-53l-8 1h-2l-1 2-9 1-3 1-8-3 1-2h7l6 1v-2l2-1 14-1h71l25 1z" fill="#081730"/>
<path transform="translate(214,307)" d="m0 0h44l2 7v2h-34l11 26v5h-7l-5-10-6-17-5-10z" fill="#144E80"/>
<path transform="translate(423,118)" d="m0 0 5 1 2 2v2l-6 3-5 1-6 1v2h-5l-5 3-7 3-10 4-13 5-7 4-1 2-9 1h-12l-5-2v-2l46-16 25-9z" fill="#FCD01B"/>
<path transform="translate(188,288)" d="m0 0 26 2 33 1 9 2v3l-2 1h-13l-18-2h-7l-4 2h-7l-6 3 1 3-1 2h2v4h2l5 9 1 9 3 2 3 6 1 1v8l-3 1-3-3-11-27-8-18-3-6z" fill="#091B33"/>
<path transform="translate(615,158)" d="m0 0h1v51l-2 43h-1l-1-11-2-5h-3l-1 7h-1v-12l2-18-2-9 2-10 2-1 1-15v-7l-3-6 1-3h7z" fill="#0A2034"/>
<path transform="translate(303,148)" d="m0 0h3v2l-7 3-4 1-1 2-10 4-12 6v2h-2v2h7l-3 2-5 2-3-3h-1l-2 10 1 9h-2l1 6-1 3 1 20-3 9h-1l-1-19-1-6v-7l-1-8v-14l2-10-1-1-1-2 6-2 10-1 15-6 7-3h8z" fill="#0E2231"/>
<path transform="translate(360,303)" d="m0 0h10l9 9v3l-31 4-23 4h-4l1-4 4-5 15-6z" fill="#F5B517"/>
<path transform="translate(257,557)" d="m0 0 4 1 16 12 10 9 12 11 15 14 13 13 7 8 10 10 7 8 9 11 6 8-1 3-5-6v-2l-6-2-1-5h-2v-2l-5-2-1-4-2-1-3-3v-3h-2l-2-3v-3h-5v-2l-7-2-1-5-3-5v-2l-3 1-4-4-6-3-5-4-4-9h-7l-1-5-4-2-5-3-1-2h2l-2-4v-3l-4-1-2-2-7-6-6-4z" fill="#0E2232"/>
<path transform="translate(272,193)" d="m0 0h1l1 11v12l2 2 2 11 1 13v19l3 1v17l-2 4 2 10 1 11 1 1v10l-1 1-1 10h-1v-5h-2l-5-46-1-13-1-44z" fill="#FDE60A"/>
<path transform="translate(478,711)" d="m0 0 4 2 3-1-1 6-12 21-14 28-6 13h-3l-5 4-3 5-4 4-1-3h2v-4l2-1 1-3h2l3-9 4-9 4-8 2-5v-5l9-9 4-7 6-11 1-5z" fill="#0A2135"/>
<path transform="translate(307,484)" d="m0 0 5 2 1 8 3 6 2 7 6 12 5 8 2 11 2 1h-2l1 3-6 7-2-3-13-29-5-10 1-10-1-2v-8z" fill="#0F2332"/>
<path transform="translate(632,307)" d="m0 0h19l-1 7-8 21-4 11-3 1-5-2-1-4 6-10 7-16h-33v-7z" fill="#154F81"/>
<path transform="translate(184,415)" d="m0 0h1l1 55 3 7-1 35h5v-2l4-2h2l1-2h2v-4-2l7-1 4 1h5l2 5v3l-21 8-12 5-4-1z" fill="#081933"/>
<path transform="translate(477,538)" d="m0 0 5 5 5 8 8 6 5-1-2 5h2l1 5-3 6-4 6-5 3h-4l-3 3 1-8-4-11-2-9z" fill="#F5B516"/>
<path transform="translate(573,470)" d="m0 0 9 1 31 9 18 6 3 3-4 2-9-3-4-3h-3l2 5-2 2-11-3-20-7-13-2-1-7h7l-3-1z" fill="#09182D"/>
<path transform="translate(399,252)" d="m0 0 1 2 4 1-1 4h3v2l-8 6-10 13-6 8-6 10 1 4 6 11 9 1v1h-13l-3-5-4-5-2-1h-10l-19 5-11 4h-2l3-6 32-9 8-5 6-7 7-9 11-13 3-6z" fill="#03134C"/>
<path transform="translate(481,357)" d="m0 0h9l11 2 5 5 1 2-1 9-3 3-3 1h-12l-7-1-1-1v-19z" fill="#FEFBF4"/>
<path transform="translate(539,477)" d="m0 0h9l3 1-1 5-12 30-7 16h-2l1-5-10 5 1-6 7-16 1-6-2-3 7-3 5-5 5-9h2l1-2-8-1z" fill="#FCE60A"/>
<path transform="translate(502,303)" d="m0 0 11 2 21 9 13 5 1 4-12-1-30-4-11-1-2-1 1-5 6-7z" fill="#F5B517"/>
<path transform="translate(257,162)" d="m0 0 3 1-1 1-2 11v18l1 3v8l1 10v19l-2 3-5-1-1-6-1-42v-19l5 1z" fill="#0A1F32"/>
<path transform="translate(402,454)" d="m0 0h65l40 3 7 1-2 2v4h9l3 2v3l-8 2-5 1-17-2v-1l12-2 1-3h-20l-7-2-10-1v-1l11-1 3-1-4-1-33-1h-61v-1z" fill="#0B203A"/>
<path transform="translate(514,139)" d="m0 0 9 2 16 6 6 2 7 3 13 3 11 4 4 1 12 5 1 5 5 1-1 4v-2l-11-3-36-13-37-13-1-2h3z" fill="#060F26"/>
<path transform="translate(675,288)" d="m0 0h4l-2 6-6 12-4 2-1 3-3-1v-6l2-6-3-1-1-1h-9l-5-1-6 1h-12l-9 2-8-3-2-1v-2l11-1 31-1z" fill="#09172A"/>
<path transform="translate(375,427)" d="m0 0h7l3 3v2l4 1 1-5h9l1 4h4l2 4h5l1 2-3 3-5-1-3-3-4 4-5-1-4-3-1 2-4 5-9 2-2-1v-15z" fill="#0D2C4D"/>
<path transform="translate(579,290)" d="m0 0 2 2-2 30-1 7-3 1-21-5-2-2v-12l2-3 4 1 8 12 5-1 4 1 2-4 1-14-6-1v2l-5 1-2-2v-5h2l1-4 1-3h2l-4 12 3-1 3-6z" fill="#0B223D"/>
<path transform="translate(335,647)" d="m0 0h4l3 1 8 10v2h2l2 6 6 3 6 8 7 11 4 8-1 5 3 5v2h2l1 3-2 2-11-18-8-12-10-13-7-9-9-11z" fill="#0A1A2E"/>
<path transform="translate(372,456)" d="m0 0h21v1l-15 1 4 3h-6l1 5v3l-31 4h-12l-5 2-3-2 4-4 3 1 1-2 6-1 1-4h9l2 2 1 2h6l-1-2h2v-3l5 1v-2l-4-1 3-1v-2z" fill="#0A1A2E"/>
<path transform="translate(528,501)" d="m0 0h2l-2 9-8 17-2 2-4-1-4-5-3-2h-3l1 8 4 9v6l-5 7h-2l1-3h2v-12l-4-12-6-2 1-2 16-8 9-6z" fill="#041345"/>
<path transform="translate(597,176)" d="m0 0 2 2v10l1 5v23l-1 4-1 13v18l-2 15-1 22-1 10-2 1-1 11-2-2v-9l5-57 1-21 1-7z" fill="#07152A"/>
<path transform="translate(530,476)" d="m0 0 9 1-5 4-14 12-16 11-15 8-6 5-1 7v2l3 1-6 1h-6l4-9v-11l10-1 14-7 14-10 11-9z" fill="#071E48"/>
<path transform="translate(510,499)" d="m0 0 2 1-3 3 3 3 5-2h3v2l-13 8v2l-21 10h-4l-1-7 5-6 16-9z" fill="#FCD219"/>
<path transform="translate(431,93)" d="m0 0 42 14v3l-4-1-9-1-4-1-5-2-2 1v-2l-3 1-4-2-1-2-10-2-5 2-6 4h-7l-5 4h-9v2l-4 1-6-1 1-3 37-13z" fill="#07142C"/>
<path transform="translate(666,365)" d="m0 0 5 1 10 3 2-4v41l-1 8-1 33-2-1v-17l-1-2-1-48-2-6-12-6z" fill="#052359"/>
<path transform="translate(653,303)" d="m0 0 8 2-1 10-1 3 2 1-4 4-2 8h-2l-2 6-2 1-4-1-4 1 1-6 8-20 2-6-2-1z" fill="#0F2332"/>
<path transform="translate(465,255)" d="m0 0h4v2l5 3 6 10 11 13 5 6v5h2l2 5 3 1 1 3-4 2-6 8-2 3v-2l-3-1 6-14-3-7-6-7-11-14-8-8-4-2v-2l-2-1 4-2z" fill="#051B4E"/>
<path transform="translate(377,699)" d="m0 0 4 2 4 6 9 16 10 18 1 7-1 2-4-1-18-33-1-6v-2h-2l-4-8z" fill="#0A172B"/>
<path transform="translate(592,581)" d="m0 0h3l1 5-10 9-11 9-18 18h-2l10-20 5-2 1-3 7-5 3-1 1-4 7-4h3z" fill="#06122A"/>
<path transform="translate(454,425)" d="m0 0h2l2 5 8 2v-2l-7-3v-2h7l2 3 4-1 4-2 2 4-1 3h2v4l-6 1-2-1-1 4h-2l-1 3h-8l-6-2-1-9-1-4z" fill="#3D6378"/>
<path transform="translate(496,290)" d="m0 0 7 6 12 6 17 6 9 3h8 3l1 12 1 2-5 1v-2l-4-1 2-1v-3l-11-3-20-9-6-2-7-1-1-4-4-4v-2h-2z" fill="#072356"/>
<path transform="translate(514,319)" d="m0 0 15 1 16 3 4 1v2h2l1-2 14 3 11 3 9 3 2 1v2h-6l-5-2-16-2-4-2v-2h-8l-4 3-2-2-15-4-9-1-5-3z" fill="#060F26"/>
<path transform="translate(557,337)" d="m0 0h14l9 3 17 4 9 1 9 4 2 5-9-1-26-7-25-6z" fill="#08162E"/>
<path transform="translate(528,642)" d="m0 0 1 3h2l1 4-12 14-12 17-4-2 1-9 3-4 4-1 2-4 2-2 3-6 2-3h2v-3h3v-2h2z" fill="#0A1B30"/>
<path transform="translate(329,475)" d="m0 0 4 1 7 8-1 2-10-3-2 6 4 1 1 7 3 1 2 6-6-1-3-6-4-1-4-9h-2l-2-8 9-3z" fill="#FCD119"/>
<path transform="translate(392,314)" d="m0 0h71l20 1 3 2h-93l-8 1h-2l-1 2-9 1-3 1-8-3 1-2h7l6 1v-2l2-1z" fill="#061025"/>
<path transform="translate(212,305)" d="m0 0 3 1h-2l7 14 6 17 4 9-1 4-3-1v-2l-5-1 1-6-3-4-3-8-2-4-3-1-1-8v-4l-2-1 2-4z" fill="#0F2333"/>
<path transform="translate(184,415)" d="m0 0h1l1 55 3 7-1 29 1 10 1 4-6 1-1-1z" fill="#07152E"/>
<path transform="translate(198,292)" d="m0 0h2v11l-1 2h2v4h2l5 9 1 9 3 2 3 6 1 1v8l-3 1-3-3-11-27-5-12v-3l2-1z" fill="#09182B"/>
<path transform="translate(294,142)" d="m0 0h4v4l-11 2-1 3-9 3-8 3-7 3-6 1v6l-1 2h-4l-1-11 5-3 16-5z" fill="#061028"/>
<path transform="translate(335,499)" d="m0 0 7 3 10 8 6 4-2 5 2 6-1 3-1-2h-3l1 9-2-3-8-16-5-9-4-6z" fill="#051646"/>
<path transform="translate(303,148)" d="m0 0h3v2l-7 3-4 1-1 2-10 4-12 6v2h-2v2h7l-3 2-5 2-3-3h-2v-2l5-4-1-1h-3v-2l-9 1v-2l6-2 10-1 15-6 7-3h8z" fill="#0A1E31"/>
<path transform="translate(450,778)" d="m0 0 1 4-12 29-6-3-1-3-3-1-1-6 3-1 3 4 1-7 3-1 2-4 6-8z" fill="#0A1A2E"/>
<path transform="translate(394,425)" d="m0 0h6l1 2h2v4h6l2 1 1 3 5 1v-6l2-1 1 5-1 6 5-3h2v-2l3-1-1 5-3 3h-8l-5-1v2h-8l-2-3-1 3-5 1h-7l-1-1v-6l4 2 5 1 2-1 2-3 3 2v2h7v-3h-6l-1-5h-4l-1-3-7-1-1 2-1-1-2 2 1-4z" fill="#0C2747"/>
<path transform="translate(297,375)" d="m0 0 3 3 6 18v4l-11 3h-5l1-8 5-18z" fill="#FEFAF2"/>
<path transform="translate(380,119)" d="m0 0 7 1-3 4-5 1-4 2-5 2-3 3-6 1-7 3-11 2-1 2h-4l-2-1v2l-4-2 2-1v-2l4-2 9-2 5-2h3l1-3 8-1 4-1 1-2h5l6-2z" fill="#0A1E31"/>
<path transform="translate(363,325)" d="m0 0h7v1l6 1 4 1h16v1l-34 3-14 2-16 1-6-1 1-2 7-2 26-4z" fill="#091933"/>
<path transform="translate(672,501)" d="m0 0 2 4 2 2 2-3h2l3 9v9l-9-3-14-6-2-3 3-3 5 1h2l3-1z" fill="#081831"/>
<path transform="translate(422,785)" d="m0 0h3l4 10 1 9 4 4 4 2-2 11-1 2-3-1-13-31v-5z" fill="#08162D"/>
<path transform="translate(539,477)" d="m0 0h9l3 1-1 5-10 25-2-4-1-3h-4l-3 6-1-3-1-4v-3l6-2 5-5 5-9h2l1-2-8-1z" fill="#FBCE1A"/>
<path transform="translate(315,304)" d="m0 0h3l2 3v7l-4 10-15 3 1-5 8-12z" fill="#F5B717"/>
<path transform="translate(610,235)" d="m0 0 3 6v24l-2 5-4-1-2-2v-24l2-7z" fill="#0A1729"/>
<path transform="translate(334,472)" d="m0 0 4 2-2 2 10 8 10 9 17 11 10 3v3h-4l-1 2-13-8-15-10v-2l-4-2-4-3v-2l-4-2-7-8z" fill="#0C2640"/>
<path transform="translate(640,504)" d="m0 0 4 2 3 10 9 25v3l-7 4-3-1 2-4-2-14-2-2-1-12-3-1-1-2v-6z" fill="#0A192C"/>
<path transform="translate(251,180)" d="m0 0h1l2 10 1 21 2 10 2 2v10l-2 3-5-1-1-6z" fill="#071127"/>
<path transform="translate(225,507)" d="m0 0h2l-1 11-3 11h-2v2h-2v6l-3 1 1 6-4 1-3-2 1-4 9-24 3-6z" fill="#07132A"/>
<path transform="translate(483,428)" d="m0 0h8l3 3-3 2-1 4h5l-1 6-5 3-5-2v-3l-3-1-2 4h-7l-1-4 9-1z" fill="#165082"/>
<path transform="translate(247,566)" d="m0 0 9 1 2 3 3 1 3 3 4 2 5 5 9 6v6l-5-1-14-12-16-12z" fill="#0A192B"/>
<path transform="translate(646,540)" d="m0 0h3l-1 6v3l-16 10-7 5h-2l3-9 3-5 3-3 9-3h4z" fill="#0A192C"/>
<path transform="translate(268,260)" d="m0 0h2l2 2h2l3 32v11l-4-1-2-4v-8l1-5-2-8-2-10z" fill="#0A182B"/>
<path transform="translate(330,518)" d="m0 0h2l9 20 3 6-1 4-1-3-8-2v5h-3v11l-3-1-2-4v-7l5-5 3-2-1-8-3-10z" fill="#091931"/>
<path transform="translate(380,344)" d="m0 0 3 1 1 7h-2l1 5v5l2 2 2 5h-2l-3 20-1 2-4-2 1-2 2 1-1-2v-41z" fill="#0A3C72"/>
<path transform="translate(559,154)" d="m0 0 6 1 11 4 4 1 12 5 1 5 5 1-1 4v-2l-11-3-19-7-2-5-4-1v-2z" fill="#091629"/>
<path transform="translate(540,463)" d="m0 0 10 1 4 1v2h-6v3h2l4 7v8l-3 9h-1l-1-11 2-5-5-1v-1l-7-1 1-6h-3l2-4z" fill="#0A182C"/>
<path transform="translate(609,565)" d="m0 0 8 3-1 3-16 12-4 2-1-4h-3v2l-7 2v-2l5-3 3-3 6-3h3v-2h2l2-5z" fill="#0A1A2E"/>
<path transform="translate(288,302)" d="m0 0 2 3 1 9v15l6-1 5-2 9-1-2 2 3 2-6 2-12 1-4 2-1 2-8 1-1-3h2l1-3 3-1z" fill="#0B1B2D"/>
<path transform="translate(422,252)" d="m0 0h24l19 3 1 4h-3l-3 1-7-2-20-2-23-1v-1z" fill="#07214B"/>
<path transform="translate(553,175)" d="m0 0 5 1 3 1v5l-2 4-1 4h-2l-1 3-3-1v-5l-2 1-1-2-4 7-3 3-2-1 2-5 7-11z" fill="#02134E"/>
<path transform="translate(341,463)" d="m0 0h9l2 2 1 2 6 1 1 3-14 2h-12l-5 2-3-2 4-4 3 1 1-2 6-1z" fill="#0A192C"/>
<path transform="translate(629,503)" d="m0 0h2l4 7 1 5 2 4v6l4 2 2 5-1 8-4 3-11 1 5-5 3-2h3l-1-4h-1l-4-16z" fill="#0F2332"/>
<path transform="translate(430,133)" d="m0 0h1l-1 16-1 13-4-2v-3l-4 1-2-1 2-9 5-10z" fill="#071736"/>
<path transform="translate(554,308)" d="m0 0 4 1 6 9 2 4v4h-7l-6-2-1-1v-12z" fill="#F5B517"/>
<path transform="translate(584,234)" d="m0 0h1v19l-2 19-7 15 5-2 1 9-3-3-6 6-3 6h-3l1-6 11-22 3-16 1-7z" fill="#F8C418"/>
<path transform="translate(199,451)" d="m0 0h1v48l2 2h-3l-1 3-2-1-1 4-3-1v-3h-2l1-3 2-1v-3h2l-1-3 2-5v-28h2z" fill="#102839"/>
<path transform="translate(381,324)" d="m0 0h32l10 2v1l-13 1-36 1v-1l-6-1 4-2z" fill="#050D24"/>
<path transform="translate(523,381)" d="m0 0 1 3 3 1 1 2 1 13 5 12 1 3 3 1 1 4-4-1-8-9-4-10z" fill="#02124C"/>
<path transform="translate(309,472)" d="m0 0h8l-1 2 2 1v2l3 1-4 1v6l-4-1v-3h-2v-2h-26l-2 1 1-3 11-3 12-1z" fill="#0A1729"/>
<path transform="translate(439,534)" d="m0 0h18l-1 3h-10l-1 3-2 11-1 11h-1v-18l-1-6h-14l-7 3-2-1v-3l-3-2z" fill="#071940"/>
<path transform="translate(492,505)" d="m0 0 2 1-1 4-9 6-2 3v7l3 1-6 1h-6l4-9v-11l10-1z" fill="#071D49"/>
<path transform="translate(584,595)" d="m0 0 2 1-51 51-7 9-5 4 2-4 11-13 12-13 28-28z" fill="#F8C817"/>
<path transform="translate(367,296)" d="m0 0 1 3 1 4-14 2-20 6-7 2 3-6 32-9z" fill="#0C253F"/>
<path transform="translate(596,258)" d="m0 0 1 3-1 5-1 22-1 10-2 1-1 11-2-2v-9l3-35 2-4h2z" fill="#060F25"/>
<path transform="translate(497,117)" d="m0 0 7 1 20 7v3h-7l-4 1-13-4-3-5z" fill="#09182C"/>
<path transform="translate(337,570)" d="m0 0 8 2 6 5 1 6 3 1 1 7 4 2-3 1-5-3-5-6v-2l-3-1-5-6-2-3z" fill="#0F2332"/>
<path transform="translate(569,473)" d="m0 0 10 1 5 2 4 2 9 6 6 3-1 2-19-7-13-2z" fill="#081831"/>
<path transform="translate(204,292)" d="m0 0h50l2 1v3l-2 1h-13l-18-2h-7l-4 2-5-2z" fill="#0A1729"/>
<path transform="translate(262,220)" d="m0 0h2l3 14-1 1v5 3l-3 1-1 7-2 1-1-13-2-4z" fill="#0A1F32"/>
<path transform="translate(259,308)" d="m0 0 6 1 3 8 1 6 3 1-1 5-6 2-3-5v-9l-3-1z" fill="#0F2332"/>
<path transform="translate(541,628)" d="m0 0 6 2-2 4-12 13h-2v-2h-2l1-5 4-9 4-1z" fill="#0A182A"/>
<path transform="translate(195,397)" d="m0 0h1l1 55-4 1v-40l1-14z" fill="#102432"/>
<path transform="translate(549,327)" d="m0 0 8 1v2l4 1 3 1v4l4 1-8 1-3-1v2l-12-1 4-1-1-9z" fill="#091A33"/>
<path transform="translate(439,495)" d="m0 0 24 8 14 4 1 4-2 1-31-10 1-2-7-3z" fill="#0A2F5F"/>
<path transform="translate(253,229)" d="m0 0h1v7h2l1 13 1 4v3l1 1v9l-3 3-2-4-2-20v-10z" fill="#081428"/>
<path transform="translate(433,466)" d="m0 0h1l1 7h1l1 14 3 10 7 2-1 2-17-2 3-4z" fill="#07132A"/>
<path transform="translate(335,544)" d="m0 0h2v7h2l3 9-1 4-3 1-4-3v-2h-2l-2-4 1-8h3z" fill="#0F2332"/>
<path transform="translate(587,307)" d="m0 0h1l-1 15-1 8-1 1-8-1 1-8h2l1-9 5-1z" fill="#FCD01B"/>
<path transform="translate(655,356)" d="m0 0 12 2 15 6-1 5-10-2-2-2-14-5h-2z" fill="#061229"/>
<path transform="translate(340,508)" d="m0 0 3 4 9 17 2 8-5-2-2-1-1-7h-2l-5-8-1-9z" fill="#FBCD1A"/>
<path transform="translate(454,425)" d="m0 0h2l2 5 6 2v2l2 1-8 1-1-3-2-1 2 6v2l8-2 1-2h2l-1 7h-8l-6-2-1-9-1-4z" fill="#0E325B"/>
<path transform="translate(356,458)" d="m0 0h8l1 5-5-1-1 4 1 2h-7l-3-3h-2v-2l-5 1-2-2h2v-2z" fill="#07142D"/>
<path transform="translate(432,424)" d="m0 0h11l-1 4-4-1-5 2v3h2v-2l4 1 1 3h-3l-2 6 6-1 2-1-1 5h-7l-3-2v-7l-2-1 1-2v-6z" fill="#0D3768"/>
<path transform="translate(323,332)" d="m0 0 4 1 6 1h8v1l-29 5-8 1v-4-1z" fill="#0B1F36"/>
<path transform="translate(465,573)" d="m0 0 8 4 5 2 4 2 1-3 1 2-5 9h-3l-7-7-6-8z" fill="#091932"/>
<path transform="translate(659,435)" d="m0 0h1l1 9v13l-13-5v-4l3-1 5 1 1-11h2z" fill="#041547"/>
<path transform="translate(322,625)" d="m0 0 9 2 2 7-4-1 1 8-4-1-7-8 1-3z" fill="#09172B"/>
<path transform="translate(271,423)" d="m0 0 1 2 5 1v2h3l1-2v6l-9 3-7 1 3-11h3z" fill="#051A4B"/>
<path transform="translate(675,288)" d="m0 0h4l-2 6-6 11h-1v-6l-2-4-3-3-13-1v-1z" fill="#08172F"/>
<path transform="translate(605,265)" d="m0 0 3 4h3 1v11l-2 11h-1l-1-8-4-3v-7l-1-3z" fill="#0A2035"/>
<path transform="translate(387,626)" d="m0 0 5 4 1 5 4 2 3 5v2l6 3 1 5-5-3-4-4v-2l-4-2-9-8-1-4h2z" fill="#102432"/>
<path transform="translate(301,611)" d="m0 0 10 5 5 4v3l6 2v5l-4 1-17-17z" fill="#091B36"/>
<path transform="translate(668,306)" d="m0 0h2l-1 5-9 22-4 1 2-9 3-11 3-3h2l1-4z" fill="#0A1A2F"/>
<path transform="translate(373,114)" d="m0 0h4v2l-3 3-6 1-3 3-11 1-3 3h-7l1-3 19-7z" fill="#061128"/>
<path transform="translate(377,699)" d="m0 0 4 2 4 6 7 12v2h-5l-2-4-3-1-1-6v-2h-2l-4-8z" fill="#091629"/>
<path transform="translate(258,367)" d="m0 0h3v33h-1v-11l-3-1-2-16-4-1v-2z" fill="#03134B"/>
<path transform="translate(504,520)" d="m0 0 4 1 5 4 2 3 3 2-6 3-4 1-1 2-3-7-1-8z" fill="#F5B517"/>
<path transform="translate(231,519)" d="m0 0 2 2-1 10h-2v6h-8l-1-3 2-2 3-9 2-3z" fill="#0F2332"/>
<path transform="translate(496,290)" d="m0 0 7 6 12 6 10 4-1 4-6-2-8-3-7-1-1-4-4-4v-2h-2z" fill="#092C5C"/>
<path transform="translate(536,200)" d="m0 0 2 1-7 10-2 4h-2l-2 5-3 5-4 5h-2l-2 4-4 2v2l-6 3-3 2 2-4 13-12 11-14 8-12z" fill="#041444"/>
<path transform="translate(579,290)" d="m0 0 2 2-1 11-8-1v2l-5 1-2-2v-5h2l1-4 1-3h2l-4 12 3-1 3-6z" fill="#08152A"/>
<path transform="translate(250,168)" d="m0 0 5 1v42h-1l-1-21-2-3h-1z" fill="#0B2038"/>
<path transform="translate(287,286)" d="m0 0 6 4 4 3v5l-1-2-4 1 1 7-2-2-2 3-1 9h-1l-1-26z" fill="#031144"/>
<path transform="translate(317,486)" d="m0 0 3 3 7 19-1 3-2-1v-2h-2l-4-8-3-7 1-6z" fill="#091629"/>
<path transform="translate(354,536)" d="m0 0 3 3 3 5v2l10 2 5-2-6 8-4 4h-2l-9-20z" fill="#091930"/>
<path transform="translate(530,476)" d="m0 0 9 1-5 4-14 12-3 1-1-5 10-8z" fill="#062051"/>
<path transform="translate(596,263)" d="m0 0h1l1 9 1 7-2 1 2 7h-2l1 7-1 5-3 2h-3l1-4 1 1 1-10 1-22z" fill="#0A1B2E"/>
<path transform="translate(451,115)" d="m0 0 4 2 9 2 3 6-5 1-19-7 4-1 1-2z" fill="#081427"/>
<path transform="translate(500,317)" d="m0 0h6l6 4-1 4-3 1-10-2h-7l-2-4 4-1h10z" fill="#0A1E31"/>
<path transform="translate(496,297)" d="m0 0h4v2l3 1 1 3-4 2-6 8-2 3v-2l-3-1z" fill="#041442"/>
<path transform="translate(482,273)" d="m0 0 5 5 8 10 1 1v5h2l1 3h-3l-1 2-3-7-6-7-5-7z" fill="#08244D"/>
<path transform="translate(399,252)" d="m0 0 1 2 4 1-1 4h3v2l-8 6-4 5-4 1 1-4 6-8z" fill="#091F42"/>
<path transform="translate(335,499)" d="m0 0 7 3 10 8 3 3h-3l-2 3h-2l-2-5-5-1-6-9z" fill="#052052"/>
<path transform="translate(546,246)" d="m0 0 4 4 2-1-2 4-8 8-3 4h-2v2h-2l1-5 6-10 1-2h2z" fill="#FBD016"/>
<path transform="translate(633,435)" d="m0 0h6l5 3 1 3v9l-9-2-3-1 1-3 4 1 1 1-1-5-2-4z" fill="#061F52"/>
<path transform="translate(432,493)" d="m0 0v3l-2 2 1 2-22 5-8-2v-1l23-5z" fill="#0C294B"/>
<path transform="translate(533,130)" d="m0 0h6l14 5v3l2 1-3 2-4-1-2-4-8 1-2-4-3-1z" fill="#09172B"/>
<path transform="translate(357,494)" d="m0 0 11 7 10 5 5 1v3h-4l-1 2-13-8-7-4v-3z" fill="#0C2B50"/>
<path transform="translate(553,592)" d="m0 0 2 1-9 9-5 6h-2v2h-2l-2 4-5 3-3 5-4 4h-2v2h-2l2-4 3-3 1-3h2l2-4 5-3 16-16z" fill="#05336C"/>
<path transform="translate(392,314)" d="m0 0 3 1zm-14 1h14l1 2-8 1h-2l-1 2-9 1-3 1-8-3 1-2h7l6 1v-2z" fill="#071229"/>
<path transform="translate(323,306)" d="m0 0h2v2h7l-3 3-1 3-5 5-2 4 2 1h-5l2-5h-2l3-9z" fill="#071530"/>
<path transform="translate(292,603)" d="m0 0 7 2v2l4 1 6 5 7 1 2 4-3 2-13-8h-3l-7-7z" fill="#09182E"/>
<path transform="translate(188,288)" d="m0 0 12 1v3l-2 2-2 6-3 1-5-10z" fill="#081732"/>
<path transform="translate(510,664)" d="m0 0m-3 1 5 1v2h2l-1 5-5 7-4-2 1-9z" fill="#071229"/>
<path transform="translate(558,245)" d="m0 0 4 1-3 2 2 1-9 6-3 1v6h-4l-1 3h-4l2-5 11-11z" fill="#06153F"/>
<path transform="translate(649,529)" d="m0 0 3 1 4 11v3l-7 4-3-1 2-4 1-10z" fill="#061128"/>
<path transform="translate(530,630)" d="m0 0 2 2-1 8-3 4-4 1-1-4h-2l1-4z" fill="#0F2332"/>
<path transform="translate(456,364)" d="m0 0 3 1 1 4v19l-2 1-2-6-1-15z" fill="#051744"/>
<path transform="translate(600,153)" d="m0 0 10 2 5 2v5l-8 1-5-5v-3h-2z" fill="#071229"/>
<path transform="translate(465,348)" d="m0 0h1l1 9-1 46h-1l-1-34v-20z" fill="#0B3E74"/>
<path transform="translate(528,642)" d="m0 0 1 3h2l1 4-10 6-3 1-1 3-2-2 4-6 1-2h2v-3h3v-2h2z" fill="#081933"/>
<path transform="translate(436,597)" d="m0 0h1l1 10h5l-3 11-4 2-1-1v-12z" fill="#0B223E"/>
<path transform="translate(394,425)" d="m0 0h6l1 2h2v4h6l2 1 2 5h-8l-1-5h-4l-1-3-7-1-1 2-1-1-2 2 1-4z" fill="#0F3458"/>
<path transform="translate(392,428)" d="m0 0h7l1 4h4l2 4h5l1 2-3 3-5-1-4-4-1-3-6-2z" fill="#FDF4DE"/>
<path transform="translate(608,308)" d="m0 0h1v7h33l-1 5-8 16-2 1 2-6 5-9 1-6h-31z" fill="#05336C"/>
<path transform="translate(389,271)" d="m0 0 4 1-2 4-8 10-2 2v-2l-5 2 6-9z" fill="#0B233E"/>
<path transform="translate(270,240)" d="m0 0h2l1 4v22l-3-3-1-3v-15z" fill="#060F26"/>
<path transform="translate(373,429)" d="m0 0h4v15l2 1-5 1-2-1v-15z" fill="#091A34"/>
<path transform="translate(621,291)" d="m0 0h25l-1 3h-27v-2z" fill="#091A35"/>
<path transform="translate(446,253)" d="m0 0h7l12 2 1 4h-3l-3 1-7-2-12-1v-1l6-1z" fill="#072455"/>
<path transform="translate(334,540)" d="m0 0 2 3h-2v5h-3v11l-3-1-2-4v-7l5-5z" fill="#091729"/>
<path transform="translate(628,504)" d="m0 0h2l7 23 1 5 2 3-1 2-5 2v-10l-5-18z" fill="#0A1F32"/>
<path transform="translate(540,463)" d="m0 0 10 1 4 1v2l-9 2v2h-5v-2h-3l2-4z" fill="#061129"/>
<path transform="translate(596,235)" d="m0 0 2 3v13l-2 9-3 1 1-19h2z" fill="#09172A"/>
<path transform="translate(319,133)" d="m0 0 3 1-1 2h-2l-1 3h-9v2l-3 2-6 1-1-2 3-3z" fill="#07132B"/>
<path transform="translate(581,585)" d="m0 0 3 2h-2l-1 5-7 4-6 5-4 1 8-8 1-5h2v-2z" fill="#0A1729"/>
<path transform="translate(597,210)" d="m0 0 2 1-1 27-3 4v-21z" fill="#071126"/>
<path transform="translate(430,133)" d="m0 0h1l-1 16-1-4-4 4-1 2h-2l1-7 3-6z" fill="#08152D"/>
<path transform="translate(434,457)" d="m0 0 8 1 4 2v2h2v2l-11 2v-3h3l-4-1v-2l-3 1-8-1 2-2h6z" fill="#0A1729"/>
<path transform="translate(565,328)" d="m0 0 10 1 4 2 7 2 2 1v2h-6l-5-2-12-3z" fill="#050D24"/>
<path transform="translate(254,211)" d="m0 0h1l2 10 2 2v10l-3 3-1-9-2 1v-16z" fill="#0A1729"/>
<path transform="translate(553,175)" d="m0 0 4 1-3 1-2 4-6 9-2 5-3 1-1-3 9-14z" fill="#08172F"/>
<path transform="translate(508,598)" d="m0 0 1 2-4 8-7 8h-2l-2 4-5 5-3 2 2-4 9-12h2l2-4 3-1 2-4z" fill="#0A1F32"/>
<path transform="translate(370,315)" d="m0 0h8l-2 1v2l-4 1-2-1h-7l-1 2h-7l-1 4h-8l4-2 5-5z" fill="#09192E"/>
<path transform="translate(398,737)" d="m0 0 5 2 2 4-1 7-4-1-4-7 1-4z" fill="#071229"/>
<path transform="translate(534,467)" d="m0 0 6 2 1 4-1 1 7 1-1 2-11 1-5-3 2-2 1 1z" fill="#091931"/>
<path transform="translate(431,115)" d="m0 0 11 3 6 2-2 3-7-1h-7v-3h-2z" fill="#FACA1A"/>
<path transform="translate(204,356)" d="m0 0h5v3l-8 5h-7l-1-3 8-4z" fill="#09182C"/>
<path transform="translate(504,503)" d="m0 0h3v2l-5 3-1 2 2 1-2 3-5 1-3-3 1-4z" fill="#FCE40B"/>
<path transform="translate(537,635)" d="m0 0 4 1-2 5-6 6h-2v-2h-2l1-5 6-4z" fill="#081630"/>
<path transform="translate(188,362)" d="m0 0h4l-2 6h-2v8h-4v-12z" fill="#061028"/>
<path transform="translate(377,430)" d="m0 0 5 2 2 3-1 4-4 4h-2l-1-10z" fill="#FDF5E2"/>
<path transform="translate(199,373)" d="m0 0 1 3-1 20-3-3-1-3v-10l2-4z" fill="#102433"/>
<path transform="translate(422,785)" d="m0 0h3l4 10-2 2-4-2-4-4v-5z" fill="#071328"/>
<path transform="translate(354,538)" d="m0 0 2 2 6 13v5l-4-2-1-3h-2l-1-11z" fill="#FBCB1A"/>
<path transform="translate(500,520)" d="m0 0h3l4 15 2 3v6l-5 7h-2l1-3h2v-12l-3-9z" fill="#09192F"/>
<path transform="translate(420,427)" d="m0 0h5v10l-3 3h-3v-11z" fill="#FDF6E5"/>
<path transform="translate(550,358)" d="m0 0 6 1 2 4 4 3-8-1-3-1h-9v-2h4l1-3z" fill="#03134B"/>
<path transform="translate(506,155)" d="m0 0 5 2v11l-2-2-4 3-1-3h3v-5l-5 1v-5z" fill="#051746"/>
<path transform="translate(414,535)" d="m0 0h22v3h-10l-7 3-2-1v-3z" fill="#021144"/>
<path transform="translate(611,251)" d="m0 0 2 1v13l-2 3-3-7v-8z" fill="#071229"/>
<path transform="translate(551,324)" d="m0 0 12 2 3 2-1 3 2 1h-6l-4-2v-2h-6l-1-2z" fill="#071228"/>
<path transform="translate(218,537)" d="m0 0 2 4-1 4 5 2 6 4-1 2-7-2-7-5 1-3v-5z" fill="#0A1A2E"/>
<path transform="translate(520,324)" d="m0 0h8l3 2 3 3-4 1-12-2-2-2z" fill="#091C31"/>
<path transform="translate(584,377)" d="m0 0 2 1 2 10v11l-2 2-1-1-1-14z" fill="#02104B"/>
<path transform="translate(582,302)" d="m0 0h4 2l-1 11h-6v-9z" fill="#FEEE08"/>
<path transform="translate(439,495)" d="m0 0 21 7-4 3-11-3 1-2-7-3z" fill="#0B2E57"/>
<path transform="translate(433,466)" d="m0 0h1l1 7h1l1 18h-3-1z" fill="#0F2C48"/>
<path transform="translate(292,339)" d="m0 0h5l-5 4-1 2-8 1-6-2v-1z" fill="#0A192E"/>
<path transform="translate(342,329)" d="m0 0 5 4-15 2-6-1 1-2 7-2z" fill="#071125"/>
<path transform="translate(646,291)" d="m0 0h19l1 3 4 2-2 2-5-3-18-2z" fill="#071126"/>
<path transform="translate(584,258)" d="m0 0 5 3-3 10-3 6-3 2 2-7z" fill="#FEEE08"/>
<path transform="translate(388,537)" d="m0 0 2 4v15l-4 5 1-20z" fill="#091A34"/>
<path transform="translate(521,520)" d="m0 0 2 1-5 8-4-1-4-6 3-1h6l2 1z" fill="#091932"/>
<path transform="translate(274,344)" d="m0 0h2v2l-4 1-1 3-7 2h-5l1-4z" fill="#0A182D"/>
<path transform="translate(610,292)" d="m0 0h8v2h14l-3 2-9 2-8-3-2-1z" fill="#081427"/>
<path transform="translate(519,645)" d="m0 0v3l-3 6-2-1-7 7-2-1 3-6z" fill="#0F2332"/>
<path transform="translate(619,497)" d="m0 0 6 1 2 1 2 6v6l-2-4-3-7-4-1 3 13v5l-2-3-3-12z" fill="#05336C"/>
<path transform="translate(248,372)" d="m0 0 2 1v19l-3 2-1-7v-12z" fill="#041650"/>
<path transform="translate(323,332)" d="m0 0 4 1 6 1h8v1l-11 2h-11l-3-3z" fill="#0C223A"/>
<path transform="translate(508,318)" d="m0 0h6v3l4 1 2 3-4 2-7-1 1-3h2l-1-2-4-2z" fill="#08162D"/>
<path transform="translate(290,284)" d="m0 0 4 1h3l5 10v2l-4-2-5-5 1-1-2-1v-2h-2z" fill="#F5B517"/>
<path transform="translate(575,382)" d="m0 0 3 1 1 6v8l-2 8h-1z" fill="#021149"/>
<path transform="translate(641,339)" d="m0 0 1 2 5 1-1 7-4 1-2-1-1-8z" fill="#0F2332"/>
<path transform="translate(308,325)" d="m0 0 3 1-2 1 3 2-6 2h-10l1-3 5-2z" fill="#0A182B"/>
<path transform="translate(376,302)" d="m0 0 4 5 3 6 9 1v1h-13l-3-5-3-3v-2h3z" fill="#0C2847"/>
<path transform="translate(668,298)" d="m0 0 3 1v7l-4 2-1 3-3-1v-6l2-4z" fill="#091628"/>
<path transform="translate(366,690)" d="m0 0h3l4 6 3 1 1 3v2l2 6h2l1 3-2 2-11-18z" fill="#0B203C"/>
<path transform="translate(483,387)" d="m0 0 14 1v2h9v1h-26v-3z" fill="#0C3F75"/>
<path transform="translate(283,227)" d="m0 0 4 1 4 3-4 4-2 13h-1z" fill="#091931"/>
<path transform="translate(332,324)" d="m0 0h14l-1 2-4 1-1-1-7 2-6 1-4-1h-3l2-2z" fill="#09172C"/>
<path transform="translate(379,286)" d="m0 0h2l-1 5-4 6-4-2-4 2 6-7z" fill="#071632"/>
<path transform="translate(591,150)" d="m0 0 7 1 3 2-1 2 2 1-9 1-3-5z" fill="#0A192D"/>
<path transform="translate(384,716)" d="m0 0 3 2v3h5v7l2 4-1 4-8-15z" fill="#091B35"/>
<path transform="translate(482,435)" d="m0 0 4 1v2l-5 1-1 4-1 1h-7l-1-4 9-1v-2h2z" fill="#0B2A53"/>
<path transform="translate(247,566)" d="m0 0 9 1 2 6 4 4-4-1-11-8z" fill="#08142B"/>
<path transform="translate(215,350)" d="m0 0 2 1-2 6-9 6-4-1 7-4-3-3 9-2z" fill="#081932"/>
<path transform="translate(489,313)" d="m0 0 3 1v2l12 2-1 2h-10l-6-1v-2h2z" fill="#071227"/>
<path transform="translate(640,504)" d="m0 0 4 2 2 6v4l-6-2-1-2v-6z" fill="#081429"/>
<path transform="translate(582,230)" d="m0 0 3 3-1 15h-1v-11l-7-1 1-4z" fill="#091B34"/>
<path transform="translate(234,555)" d="m0 0h5l1 3 4 2-1 3-5-1-7-5z" fill="#0A1C36"/>
<path transform="translate(219,493)" d="m0 0 2 1 1 3-4 2-9 1-3-2z" fill="#0C2037"/>
<path transform="translate(255,255)" d="m0 0 4 2v9l-3 3-2-4z" fill="#09172A"/>
<path transform="translate(548,617)" d="m0 0 2 1-4 12-5-2v-4h2v-2z" fill="#0A1F32"/>
<path transform="translate(264,579)" d="m0 0 6 2 7 6 1 4-4-2-10-8z" fill="#08142B"/>
<path transform="translate(259,234)" d="m0 0 1 3 3-1v12l-2 4h-1l-1-13-1-3z" fill="#0F2332"/>
<path transform="translate(399,105)" d="m0 0 3 1v3h-3v2l-4 1-6-1 1-3z" fill="#06122B"/>
<path transform="translate(421,648)" d="m0 0 5 2 6 5h3l1 3-2 2h-3v-2h-2l-7-8z" fill="#071229"/>
<path transform="translate(338,350)" d="m0 0 2 1-2 15-2 2-1-13 1-3h2z" fill="#02104B"/>
<path transform="translate(335,499)" d="m0 0 7 3 3 4-4 4-6-9z" fill="#0B243D"/>
<path transform="translate(604,367)" d="m0 0h4v13l-2 4-1-1z" fill="#02114A"/>
<path transform="translate(524,307)" d="m0 0 8 1v3l4 1-1 2-6-1-6-4z" fill="#082450"/>
<path transform="translate(288,302)" d="m0 0 2 3 1 9-2 16h-1l-1-16z" fill="#050E26"/>
<path transform="translate(536,200)" d="m0 0 2 1-7 10-2 4h-2l-2 5-5 5-2-1 7-8 10-15z" fill="#07183E"/>
<path transform="translate(302,175)" d="m0 0 5 2 1 4h-2l-1 2-4-2 2-1-6-1 1-3z" fill="#05153F"/>
<path transform="translate(370,503)" d="m0 0 13 4v3h-4l-1 2-8-5z" fill="#0A2D5C"/>
<path transform="translate(334,472)" d="m0 0 4 2-2 2 7 5-4 3-8-9z" fill="#0F2E4B"/>
<path transform="translate(455,432)" d="m0 0 3 1v3h7v3l-8 2-2-5z" fill="#FCECC6"/>
<path transform="translate(287,286)" d="m0 0 4 3-1 3h-2v8h2v5h-1l-1 9h-1l-1-26z" fill="#0E2B45"/>
<path transform="translate(490,437)" d="m0 0h5l-1 6-5 3-5-2v-2h5z" fill="#12487B"/>
<path transform="translate(432,424)" d="m0 0h11l-1 4-4-1-7 3v-5z" fill="#0F3458"/>
<path transform="translate(484,187)" d="m0 0 2 1-5 9-3 3-4-1 8-10z" fill="#071638"/>
<path transform="translate(535,626)" d="m0 0 6 2-5 5v-2l-2 1-2 7-2-2 1-5v-3h2v-2z" fill="#0A1E31"/>
<path transform="translate(365,605)" d="m0 0 5 1 2 5-4 2-5-5v-2z" fill="#102432"/>
<path transform="translate(589,572)" d="m0 0m-2 1 2 1-9 9 5 2-4 1-5 1v-3l5-5z" fill="#0C2031"/>
<path transform="translate(281,478)" d="m0 0 3 1 1-1h13l-3 2h-6l-2 2-6 1-3-3h3z" fill="#081730"/>
<path transform="translate(388,437)" d="m0 0 4 2 8 3-4 2h-7l-1-1z" fill="#091C38"/>
<path transform="translate(551,311)" d="m0 0h1l1 12 1 2-5 1v-2l-4-1h3v-5h1z" fill="#0D2842"/>
<path transform="translate(364,154)" d="m0 0 4 1-1 5h-5l-1 10h-1v-12z" fill="#09162B"/>
<path transform="translate(517,629)" d="m0 0v3l-2 3h-2l-2 5-9 10v-3l13-16z" fill="#05336C"/>
<path transform="translate(515,490)" d="m0 0 3 1-2 5-7 4v-3l3-5z" fill="#081F41"/>
<path transform="translate(394,435)" d="m0 0h5l1 4-3 2-5-1-1-4z" fill="#FDF0D3"/>
<path transform="translate(388,343)" d="m0 0h6l-1 18h-1l-1-12-5-3 2-1z" fill="#05194F"/>
<path transform="translate(450,229)" d="m0 0h2l1 11h3l-1 2h5v1l-23-1v-1l13-1z" fill="#0C2134"/>
<path transform="translate(436,793)" d="m0 0 1 2-2 9h-6l-1-6 3-1 3 4 1-7z" fill="#0A1E31"/>
<path transform="translate(526,546)" d="m0 0 1 4-8 15-2-1 2-6z" fill="#0A1729"/>
<path transform="translate(595,428)" d="m0 0 3 3 6 3v2l2 1h-7l-4-1z" fill="#04174C"/>
<path transform="translate(472,249)" d="m0 0 2 3 3 2-4 6-5-2v-4h2v-2h2z" fill="#06275C"/>
<path transform="translate(347,521)" d="m0 0h4 4v5h-2l1 9-2-3z" fill="#554C2B"/>
<path transform="translate(551,478)" d="m0 0 3 2-1 9-2 5h-1l-1-11z" fill="#091427"/>
<path transform="translate(556,467)" d="m0 0h9l3 1 1 3h-11z" fill="#07142A"/>
<path transform="translate(547,134)" d="m0 0 6 1v3l2 1-3 2-4-1-2-2z" fill="#0A192D"/>
<path transform="translate(486,457)" d="m0 0h17l3 2-19 1-2-2z" fill="#071227"/>
<path transform="translate(428,434)" d="m0 0 1 4-4 4h-8l-1-2 7-2 3-1v-2z" fill="#0B2542"/>
<path transform="translate(441,432)" d="m0 0 2 4-2 4-3 1-3-1 2-6h4z" fill="#DAD5BD"/>
<path transform="translate(549,327)" d="m0 0 7 2 1 3-3 1-3-1-1 3-2-1v-6z" fill="#091E31"/>
<path transform="translate(598,172)" d="m0 0 2 3 2 7-2 11h-1l-1-9v-7l-1-2z" fill="#0A1D30"/>
<path transform="translate(471,528)" d="m0 0 6 1 1 5-2 3-1 6h-1l-1-8 1-3-3-1z" fill="#021147"/>
<path transform="translate(547,311)" d="m0 0 3 1v8l-3 2v-3l-5-1 4-3v-2l-2-1z" fill="#0A3060"/>
<path transform="translate(200,292)" d="m0 0 5 1 4 4-7 1-1 2h-2z" fill="#081731"/>
<path transform="translate(311,198)" d="m0 0 2 3v2h2l1 5h-4l-4-1 1-3 2-4-2-1z" fill="#02104A"/>
<path transform="translate(269,165)" d="m0 0 1 2 2 1h-2v2h7l-3 2-5 2-3-3h-2v-2z" fill="#0A1F33"/>
<path transform="translate(436,99)" d="m0 0 1 3h3l-1 4-5 2-1-3v-5z" fill="#0F2332"/>
<path transform="translate(493,657)" d="m0 0h2l-2 5-9 11-2 1 2-5z" fill="#05336C"/>
<path transform="translate(348,526)" d="m0 0 4 3 2 8-5-2-2-1v-6z" fill="#FBCF19"/>
<path transform="translate(380,344)" d="m0 0 3 1 1 7h-2l-1 10h-1l-1-17z" fill="#052D65"/>
<path transform="translate(411,342)" d="m0 0h19l5 1v2l-3 1-6-1v-2h-15z" fill="#0C3266"/>
<path transform="translate(482,273)" d="m0 0 5 5 4 6-4-1-4-2-2-5z" fill="#0B2D57"/>
<path transform="translate(504,672)" d="m0 0 1 3 1 4v3l-2 3h-2l-2-5h2l1-6z" fill="#0A192D"/>
<path transform="translate(306,613)" d="m0 0 10 1 2 4-3 2-9-6z" fill="#091729"/>
<path transform="translate(238,545)" d="m0 0 6 1 10 7-1 3-10-7-5-3z" fill="#0E2232"/>
<path transform="translate(504,520)" d="m0 0 4 1 4 3-1 2-4-1-1 4h-2l-1-8z" fill="#F7BE18"/>
<path transform="translate(528,501)" d="m0 0h2l-2 9-6-1 3-6z" fill="#0A1D37"/>
<path transform="translate(432,429)" d="m0 0 1 3h2v-2l4 1 1 3h-3l-2 4-2-3-3-2z" fill="#144772"/>
<path transform="translate(390,428)" d="m0 0 1 2 9 3-1 3-8-2v-2h-2z" fill="#091D38"/>
<path transform="translate(477,267)" d="m0 0 5 5-1 5-5-5-3-4z" fill="#0A264B"/>
<path transform="translate(409,254)" d="m0 0 24 1v1l-16 1-8 2z" fill="#0F4073"/>
<path transform="translate(399,252)" d="m0 0 1 2 4 1-1 4h3v2l-5 1-2-4z" fill="#07142A"/>
<path transform="translate(472,245)" d="m0 0 6 3-1 5-6-1z" fill="#081831"/>
<path transform="translate(480,519)" d="m0 0h1l1 7 3 1-6 1h-6l2-3h3v-2h2z" fill="#08162D"/>
<path transform="translate(459,425)" d="m0 0h7l5 5-1 3-1-2-9-3z" fill="#0D2A4B"/>
<path transform="translate(335,415)" d="m0 0h2l1 3h10v2l-13 2z" fill="#0B2441"/>
<path transform="translate(503,171)" d="m0 0 2 2-1 8-4-1-1-5z" fill="#02104B"/>
<path transform="translate(591,166)" d="m0 0 2 1v3l5 1-1 4v-2l-9-3v-3z" fill="#071025"/>
<path transform="translate(294,142)" d="m0 0h4v4l-4 1h-7l4-4z" fill="#060F26"/>
<path transform="translate(308,137)" d="m0 0 2 1-1 3-3 2-6 1-1-2 3-3z" fill="#060E24"/>
<path transform="translate(353,121)" d="m0 0 2 1-3 5h-8l1-3z" fill="#07132C"/>
<path transform="translate(361,550)" d="m0 0 4 2h2l1-2h2l-2 5-3 3h-2l-2-5z" fill="#081429"/>
<path transform="translate(383,509)" d="m0 0h2v6h-2l-1 2-3-3v-4z" fill="#061129"/>
<path transform="translate(220,507)" d="m0 0h3l-1 5-2 6h-1l-1-8-4-1z" fill="#F5B71D"/>
<path transform="translate(384,436)" d="m0 0 4 1-1 2-4 5-4 1-2-2 6-5z" fill="#173B57"/>
<path transform="translate(479,435)" d="m0 0 1 4-7 2-2-1v-4z" fill="#FDEFCF"/>
<path transform="translate(323,313)" d="m0 0 3 2-4 5-1 3 2 1h-5l2-5h-2l1-5 2 2z" fill="#0C2239"/>
<path transform="translate(588,312)" d="m0 0h3l1 5-3 5-2-1v-7z" fill="#060E24"/>
<path transform="translate(241,292)" d="m0 0h13l2 2-3 1h-7l-5-1z" fill="#050C23"/>
<path transform="translate(460,121)" d="m0 0h5l2 4-5 1-6-3z" fill="#061027"/>
<path transform="translate(463,744)" d="m0 0 2 3-2 6h-4v-6z" fill="#0A1729"/>
<path transform="translate(457,426)" d="m0 0 9 3 2 3-4 1-6-3z" fill="#FEF7E9"/>
<path transform="translate(285,375)" d="m0 0 2 1v9l-4-1v-7h2z" fill="#03144E"/>
<path transform="translate(494,302)" d="m0 0 1 3-2 4 3 1-3 6-1-2-3-1z" fill="#0B2746"/>
<path transform="translate(341,263)" d="m0 0 5 3v4l-3 2-2-1z" fill="#09192F"/>
<path transform="translate(540,256)" d="m0 0 1 3 2 1-4 5h-2v2h-2l1-5z" fill="#F5B517"/>
<path transform="translate(252,235)" d="m0 0 3 4v13l-1 6h-1l-1-13z" fill="#0D2841"/>
<path transform="translate(483,704)" d="m0 0 3 1-2 1 1 3-1 4-4 1v-3l2-6z" fill="#0A1729"/>
<path transform="translate(536,643)" d="m0 0v3l-8 10-5 4 2-4z" fill="#F5B517"/>
<path transform="translate(673,515)" d="m0 0 9 2v4l-6-1-4-2z" fill="#09172B"/>
<path transform="translate(434,457)" d="m0 0 7 1-1 2h-2v2h-2v-2l-3 1-8-1 2-2h6z" fill="#0A192C"/>
<path transform="translate(483,428)" d="m0 0h8l3 3-4 1v-2l-5 2-2 2z" fill="#0B3367"/>
<path transform="translate(526,405)" d="m0 0 3 3 7 9 3 3-4-1-8-9z" fill="#091B34"/>
<path transform="translate(655,383)" d="m0 0 6 1v8l-3-1z" fill="#05184D"/>
<path transform="translate(367,296)" d="m0 0 1 3 1 4h-7l1-3-3-1z" fill="#0E3765"/>
<path transform="translate(570,293)" d="m0 0 3 4-3 6h-3l1-6z" fill="#F5B816"/>
<path transform="translate(541,237)" d="m0 0 3 1 2 5-3 3v-4l-5 4 2-8z" fill="#02124D"/>
<path transform="translate(531,639)" d="m0 0 1 2h3l-1 5-3 1v-2h-2l1-5z" fill="#091629"/>
<path transform="translate(387,612)" d="m0 0 5 4 7 8 2 4-4-2-7-8-3-4z" fill="#091528"/>
<path transform="translate(544,363)" d="m0 0h7l3 2-8 2-4 2-1-3z" fill="#092855"/>
<path transform="translate(418,352)" d="m0 0h10l4 2-4 1h-12z" fill="#0A3C73"/>
<path transform="translate(346,330)" d="m0 0h8l1 3-14 1 4-3z" fill="#0D253E"/>
<path transform="translate(578,322)" d="m0 0h1v7l4-1 1-5 2 2v5l-1 1-8-1z" fill="#F5B517"/>
<path transform="translate(356,300)" d="m0 0h7l-1 3-9 2 2-4z" fill="#0B2848"/>
<path transform="translate(204,292)" d="m0 0h7l5 3-4 2-5-2z" fill="#09172B"/>
<path transform="translate(389,271)" d="m0 0 4 1-2 4-4 4-2-4z" fill="#0D2946"/>
<path transform="translate(473,260)" d="m0 0 3 3 1 7-1-2-5-1v-4h2z" fill="#061941"/>
<path transform="translate(540,254)" d="m0 0 1 2-5 8-2 4-1-1v-5h2l1-5z" fill="#122333"/>
<path transform="translate(574,237)" d="m0 0h5l4 3v7h-1v-5h-2v-2l-9 1-1-2z" fill="#02104B"/>
<path transform="translate(437,99)" d="m0 0 8 1 3 2 5 1-4 3v-2l-3 1-4-2-1-2z" fill="#0A1729"/>
<path transform="translate(518,506)" d="m0 0h2l-1 3-11 6-3-1z" fill="#FBE00C"/>
<path transform="translate(503,457)" d="m0 0 11 1-2 3h-12z" fill="#0D2942"/>
<path transform="translate(290,289)" d="m0 0 3 1v4l-2 1-1 5h-2v-8h2z" fill="#031B51"/>
<path transform="translate(508,137)" d="m0 0 10 1 2 2h-5v2l-4 1-1-4h-2z" fill="#091427"/>
<path transform="translate(466,436)" d="m0 0h2l-1 7h-6v-3l4-2z" fill="#0A264C"/>
<path transform="translate(485,433)" d="m0 0 4 2 2 3-1 4-3 1-1-4 1-4h-2z" fill="#FCECC8"/>
<path transform="translate(611,428)" d="m0 0h7l6 2v2h-7l-6-3z" fill="#061B4F"/>
<path transform="translate(289,359)" d="m0 0 4 1-2 5h-2l-1 5h-1v-7z" fill="#04174E"/>
<path transform="translate(572,302)" d="m0 0 6 1-1 3-10 1v-2l5-1z" fill="#02114C"/>
<path transform="translate(583,170)" d="m0 0 10 3 2 4-2 1-5-3v-2l-4-1z" fill="#FEEE08"/>
<path transform="translate(419,112)" d="m0 0 4 1 1 2h3l-1 3-6 1 1-4-5-1z" fill="#071228"/>
<path transform="translate(349,557)" d="m0 0h2l4 9-3 1-4-8z" fill="#09182E"/>
<path transform="translate(537,506)" d="m0 0 2 2-1 5-3 4-1-9h3z" fill="#FBCE18"/>
<path transform="translate(457,503)" d="m0 0 9 1v3l-8-1-2-2z" fill="#092750"/>
<path transform="translate(392,428)" d="m0 0h7l1 5-7-2z" fill="#FEFBF6"/>
<path transform="translate(185,367)" d="m0 0h5l-2 1v8h-3z" fill="#08172D"/>
<path transform="translate(204,356)" d="m0 0 4 1-6 4-5 1 1-4z" fill="#07132B"/>
<path transform="translate(516,303)" d="m0 0 9 3-1 4-6-2z" fill="#0C3668"/>
<path transform="translate(446,253)" d="m0 0h7l4 2-6 1v1h-10v-1l6-1z" fill="#0F3865"/>
<path transform="translate(184,504)" d="m0 0h2l2 9-3 1-2-2z" fill="#08152A"/>
<path transform="translate(497,502)" d="m0 0h3v4l-3 2h-4l1-4z" fill="#081C3E"/>
<path transform="translate(631,500)" d="m0 0 5 1 2 6v5l-2-2-4-8z" fill="#102432"/>
<path transform="translate(521,485)" d="m0 0 2 4-5 5-2-4z" fill="#092750"/>
<path transform="translate(500,468)" d="m0 0h6l5 2v1l-17-1v-1z" fill="#0C243F"/>
<path transform="translate(476,431)" d="m0 0 3 1v4l-6 1-2-4h5z" fill="#0A264E"/>
<path transform="translate(454,425)" d="m0 0h2l1 6h-6l1-4z" fill="#0A2952"/>
<path transform="translate(276,344)" d="m0 0 7 1v2l-11 2v-2l4-1z" fill="#091B36"/>
<path transform="translate(547,257)" d="m0 0 2 1-1 4h-3l-1 3h-4v-2z" fill="#02104A"/>
<path transform="translate(457,230)" d="m0 0 3 1 1 4h-2l-1 3h-3l1-6z" fill="#041547"/>
<path transform="translate(254,225)" d="m0 0 2 2v9l-4-1v-7h2z" fill="#050C23"/>
<path transform="translate(483,129)" d="m0 0h5v2h-2v2l2 1-9-2-2-2z" fill="#060F25"/>
<path transform="translate(604,567)" d="m0 0 2 1-2 4h-2v2l-6 3-2-1 3-3h3l2-4h2z" fill="#0A1F32"/>
<path transform="translate(385,536)" d="m0 0h2l-1 5-5 3h-2l2-4z" fill="#FAC918"/>
<path transform="translate(358,463)" d="m0 0 2 2v3h-7l-1-2 1-2z" fill="#071630"/>
<path transform="translate(454,436)" d="m0 0 3 1v3h4v3l-7-1-1-5z" fill="#103B64"/>
<path transform="translate(406,424)" d="m0 0 5 1 1 3h-8v-3z" fill="#0E3053"/>
<path transform="translate(479,320)" d="m0 0h5l3 4h-8l-1-3z" fill="#0A1F32"/>
<path transform="translate(331,307)" d="m0 0 4 1 3 2-10 3 2-4z" fill="#0D2B45"/>
<path transform="translate(656,294)" d="m0 0h7l5 3-1 3h-2v-2l-9-3z" fill="#081731"/>
<path transform="translate(596,263)" d="m0 0h1l1 9 1 7-2 1-1-3z" fill="#0A1F32"/>
<path transform="translate(405,252)" d="m0 0 4 2 1 4-1 2-5-1z" fill="#062056"/>
<path transform="translate(544,187)" d="m0 0 2 1-2 7-3 1-1-3z" fill="#081833"/>
<path transform="translate(384,110)" d="m0 0 3 1-1 4h-8l1-3z" fill="#07132B"/>
<path transform="translate(482,520)" d="m0 0 2 3 5-1 6-2-3 3-6 3h-4z" fill="#FADA0D"/>
<path transform="translate(503,517)" d="m0 0 2 3-2 1-3-1 1 3h-5v-3z" fill="#0B2242"/>
<path transform="translate(383,515)" d="m0 0 2 2 1 6-4-1-2-6z" fill="#0C233E"/>
<path transform="translate(449,499)" d="m0 0 8 2 3 2-6 2v-3l-6-1z" fill="#0C376C"/>
<path transform="translate(432,493)" d="m0 0v3l-2 2 1 2-7 1v-3l2-2z" fill="#0E3258"/>
<path transform="translate(278,313)" d="m0 0h1v7l-7-3 3-3z" fill="#0F2332"/>
<path transform="translate(374,299)" d="m0 0 2 2v4l-6-1-1-2h2v-2z" fill="#07193B"/>
<path transform="translate(561,177)" d="m0 0 2 3-5 14-1-4 2-7z" fill="#0B1B30"/>
<path transform="translate(472,124)" d="m0 0h4l2 4-7 1-2-2z" fill="#050C23"/>
</svg>
